# xmcd
#
# Track frame offsets:
#	150
#	15553
#	28101
#	41578
#	54642
#	64958
#	77096
#	88770
#	103581
#	117921
#	131125
#	146691
#	160200
#	174065
#	187524
#
# Disc length: 2674 seconds
#
# Revision: 1
# Processed by: cddbd v1.5.2PL0 Copyright (c) Steve Scherf et al.
# Submitted via: audiograbber 1.83.01
#
DISCID=c10a700f
DTITLE=Сборник - Paris En Chansons CD2
DYEAR=1900
DGENRE=
TTITLE0=Catherine Sauvage - Paris Canaille
TTITLE1=Michele Arnaud - L'ile Saint Louis
TTITLE2=Georges Guetary - Journee De Paris
TTITLE3=Lucienne Delyle - Sous Les Ponts De Paris
TTITLE4=Maurice Chevalier - Paris Je T'aime D'amour
TTITLE5=Bourvil - A Joinville Le Pont
TTITLE6=Patachou - Rue Lepic
TTITLE7=Charles Trenet - Menilmontant
TTITLE8=Edith Piaf - Les Amants De Paris
TTITLE9=Andre Dassary - Il N'y A Qu'un Paris
TTITLE10=Line Renaud - Moulin Rouge
TTITLE11=Jean Sablon - Paris, Tu N'as Pas Change
TTITLE12=Lucienne Boyer - De La Madeleine А l'Opera
TTITLE13=Tino Rossi - Paris, Voici Paris
TTITLE14=Jacques Helian - Fleur De Paris
EXTD=
EXTT0=
EXTT1=
EXTT2=
EXTT3=
EXTT4=
EXTT5=
EXTT6=
EXTT7=
EXTT8=
EXTT9=
EXTT10=
EXTT11=
EXTT12=
EXTT13=
EXTT14=
PLAYORDER=
